<svg id="Lag_1" data-name="Lag 1" xmlns="http://www.w3.org/2000/svg" viewBox="0 0 50 50"><defs><style>.cls-1{fill:#206392;}.cls-2{fill:#054c7f;}</style></defs><title>head</title><path class="cls-1" d="M24.62,31.65a2.28,2.28,0,0,0,2.28-2.28H22.35A2.28,2.28,0,0,0,24.62,31.65Z"/><path class="cls-1" d="M32.48,25.52a8.68,8.68,0,0,1,4.14,1,4.73,4.73,0,0,0,.5-2.09,4.64,4.64,0,1,0-8.77,2.09A8.67,8.67,0,0,1,32.48,25.52Z"/><path class="cls-1" d="M16.57,25.52a8.64,8.64,0,0,1,4.13,1,4.63,4.63,0,1,0-8.26,0A8.64,8.64,0,0,1,16.57,25.52Z"/><path class="cls-2" d="M39.13,47.12H10.29A8.1,8.1,0,0,1,2.19,39V10.18a8.1,8.1,0,0,1,8.1-8.1h9.43V4.49a2.79,2.79,0,0,0,2.79,2.79h4a2.79,2.79,0,0,0,2.79-2.79V2.08h9.84a8.1,8.1,0,0,1,8.1,8.1V39A8.1,8.1,0,0,1,39.13,47.12ZM10.29,5a5.18,5.18,0,0,0-5.18,5.18V39a5.18,5.18,0,0,0,5.18,5.18H39.13A5.18,5.18,0,0,0,44.31,39V10.18A5.18,5.18,0,0,0,39.13,5H32.19a5.72,5.72,0,0,1-5.69,5.2h-4A5.72,5.72,0,0,1,16.82,5Z"/></svg>