<svg id="Layer_1" data-name="Layer 1" xmlns="http://www.w3.org/2000/svg" viewBox="0 0 658.09 218.38"><defs><style>.cls-1{fill:#216393;}.cls-2{fill:#044c7f;}</style></defs><title>logoSvg</title><path class="cls-1" d="M340.42,133.62V50.22h18.07v83.57c0,13.64,14.7,20.38,27.81,20.38,12.93,0,27.63-6.91,27.63-20.55V50.22H432v83.57c0,25.16-24.44,38.27-45.7,38.27C364.51,172.06,340.42,159,340.42,133.62Z"/><path class="cls-1" d="M262.72,87.69V50.22H244.38V172.06h18.34v-45.8l46.51,45.8h25L284.4,121.42c-12-11.62-12.8-16.13-5.15-24l47.47-47.15H301Z"/><path class="cls-1" d="M543.24,67.78a61,61,0,0,1,87.07,0,62,62,0,0,1,0,87.24,61,61,0,0,1-87.07,0,62,62,0,0,1,0-87.24Zm74.65,12.41a44.39,44.39,0,0,0-31.2-13.1,43.32,43.32,0,0,0-30.87,13.1,44.13,44.13,0,0,0,0,62.42,43.32,43.32,0,0,0,30.87,13.1,44.38,44.38,0,0,0,31.2-75.52Z"/><path class="cls-1" d="M486.5,50.22H453.31a8.89,8.89,0,0,0-8.89,8.88V90.73a8.89,8.89,0,0,0,8.89,8.89h32.84A22.39,22.39,0,0,0,504,91.28a26.47,26.47,0,0,0,5.6-16.58C509.55,60.52,499.85,50.22,486.5,50.22Zm5.84,25.18a9.19,9.19,0,0,1-9.06,9.29H462.19V65.14h21.09a9.2,9.2,0,0,1,9.06,9.3Z"/><path class="cls-1" d="M493.39,112.42h-39.6a9.38,9.38,0,0,0-9.38,9.38v40.89a9.38,9.38,0,0,0,9.38,9.37h39.6c18.24,0,28.08-15.41,28.08-29.91S511.63,112.42,493.39,112.42Zm10.84,30.48a11.6,11.6,0,0,1-11.59,11.59H462.2V130.16h30.44a11.6,11.6,0,0,1,11.59,11.59Z"/><path class="cls-1" d="M105,140.27a9.56,9.56,0,0,0,9.57-9.56H95.41A9.57,9.57,0,0,0,105,140.27Z"/><path class="cls-1" d="M138,114.52a36.06,36.06,0,0,1,17.36,4.21,19.23,19.23,0,0,0,2.12-8.79,19.48,19.48,0,1,0-36.84,8.79A36.06,36.06,0,0,1,138,114.52Z"/><path class="cls-1" d="M71.14,114.52a36.1,36.1,0,0,1,17.37,4.21,19.48,19.48,0,1,0-34.73,0A36.09,36.09,0,0,1,71.14,114.52Z"/><path class="cls-2" d="M165.93,205.3H44.76a34.09,34.09,0,0,1-34-34.05V50.07A34.09,34.09,0,0,1,44.76,16h39.6V26.15A11.73,11.73,0,0,0,96.08,37.87h16.8A11.73,11.73,0,0,0,124.6,26.15V16h41.33a34.09,34.09,0,0,1,34,34.05V171.25A34.09,34.09,0,0,1,165.93,205.3ZM44.76,28.3A21.79,21.79,0,0,0,23,50.07V171.25A21.79,21.79,0,0,0,44.76,193H165.93a21.79,21.79,0,0,0,21.77-21.77V50.07A21.79,21.79,0,0,0,165.93,28.3H136.78a24,24,0,0,1-23.9,21.85H96.08A24,24,0,0,1,72.18,28.3Z"/></svg>